<?xml version="1.0" encoding="utf-8"?>
<!-- Generator: Adobe Illustrator 27.3.1, SVG Export Plug-In . SVG Version: 6.00 Build 0)  -->
<svg version="1.1" id="Ebene_1" xmlns="http://www.w3.org/2000/svg" xmlns:xlink="http://www.w3.org/1999/xlink" x="0px" y="0px"
	 viewBox="0 0 193 45" style="enable-background:new 0 0 193 45;" xml:space="preserve">
<style type="text/css">
	.st0{fill:#FFFFFF;}
</style>
<g>
	<g>
		<g>
			<g>
				<path class="st0" d="M10,0h10c7.8,7.8,12.2,12.2,20,20l0,0H10c-3.9-3.9-6.1-6.1-10-10l0,0C3.9,6.1,6.1,3.9,10,0z"/>
			</g>
			<g>
				<path class="st0" d="M30,45H20C12.2,37.2,7.8,32.8,0,25l0,0h30c3.9,3.9,6.1,6.1,10,10l0,0C36.1,38.9,33.9,41.1,30,45z"/>
			</g>
		</g>
	</g>
</g>
<g>
	<g>
		<path class="st0" d="M73.70215,22.21997c-0.75879-0.60645-1.65723-1.11963-2.69531-1.54004
			c-1.03809-0.41992-2.19922-0.75781-3.48242-1.01465c-0.56006-0.09326-1.09717-0.21582-1.60986-0.36768
			c-0.51367-0.15137-0.96875-0.33789-1.36523-0.56006c-0.39697-0.22168-0.71191-0.47266-0.94482-0.75244
			c-0.2334-0.28027-0.3501-0.61816-0.3501-1.01514c0-0.44287,0.14014-0.82227,0.41992-1.13721
			c0.28027-0.31543,0.67041-0.56006,1.17285-0.73535c0.50146-0.1748,1.10254-0.26221,1.80225-0.26221
			c0.67676,0,1.33545,0.10498,1.97754,0.31494c0.6416,0.20996,1.24805,0.51318,1.82031,0.90967
			c0.57129,0.39746,1.10254,0.89893,1.59229,1.50537l3.6748-3.53516c-0.5835-0.88672-1.28906-1.64502-2.11719-2.2749
			c-0.82861-0.62988-1.82031-1.11426-2.9751-1.45264c-1.15527-0.33789-2.5376-0.50732-4.14746-0.50732
			c-1.21338,0-2.37988,0.18066-3.5,0.54248s-2.10596,0.875-2.95752,1.54004c-0.85205,0.66504-1.52881,1.4585-2.03027,2.37988
			c-0.50195,0.92188-0.75244,1.93115-0.75244,3.02734c0,1.02734,0.16309,1.95459,0.49023,2.78271
			c0.32617,0.82861,0.82227,1.56348,1.4873,2.20508c0.66504,0.64209,1.49902,1.18408,2.50244,1.62744
			c1.00293,0.44336,2.18164,0.81738,3.53516,1.12012c0.49023,0.09375,0.96777,0.2041,1.43506,0.33203
			c0.46631,0.12891,0.91016,0.28027,1.33008,0.45508s0.78125,0.36816,1.08496,0.57812
			c0.30273,0.20996,0.54248,0.45508,0.71729,0.73438c0.17529,0.28027,0.2627,0.5957,0.2627,0.94531
			c0,0.4668-0.14014,0.85742-0.41992,1.17285c-0.28027,0.31445-0.67725,0.55371-1.18994,0.7168
			c-0.51367,0.16406-1.08496,0.24512-1.71533,0.24512c-1.25977,0-2.47949-0.26758-3.65723-0.80469
			c-1.17871-0.53613-2.35107-1.58691-3.51758-3.15039l-3.60498,4.0957c0.79297,1.00293,1.69141,1.87207,2.69482,2.60742
			c1.00293,0.73438,2.15234,1.29492,3.44775,1.67969c1.29492,0.38477,2.74707,0.57715,4.35742,0.57715
			c1.86621,0,3.51758-0.30957,4.95264-0.92676c1.43506-0.61816,2.56641-1.5166,3.39502-2.69531
			c0.82764-1.17773,1.24219-2.61914,1.24219-4.32227c0-1.09668-0.20459-2.05957-0.6123-2.8877
			C75.04346,23.54468,74.45996,22.8269,73.70215,22.21997z"/>
		<polygon class="st0" points="78.58447,15.60522 85.86426,15.60522 85.86426,34.85522 91.81445,34.85522 91.81445,15.60522 
			99.26953,15.60522 99.26953,10.35522 78.58447,10.35522 		"/>
		<path class="st0" d="M118.76465,25.19507c1.25977-0.7002,2.25195-1.66211,2.97559-2.8877
			c0.72266-1.22461,1.08496-2.60742,1.08496-4.14746c0-1.49268-0.3623-2.82861-1.08496-4.00732
			c-0.72363-1.17822-1.72168-2.10547-2.99316-2.78271c-1.27148-0.67627-2.68945-1.01465-4.25195-1.01465h-11.02539v24.5h5.66992
			v-8.61035h3.05988l4.85028,8.61035h6.79004l-5.49408-9.46289C118.4848,25.32526,118.62939,25.27026,118.76465,25.19507z
			 M109.13965,15.32495h4.30469c0.74707,0,1.38281,0.12842,1.9082,0.38525c0.52441,0.25684,0.92773,0.62451,1.20703,1.10254
			c0.28027,0.47852,0.41992,1.03223,0.41992,1.66211c0,0.63037-0.12207,1.19043-0.36719,1.68018
			c-0.24512,0.49023-0.59473,0.86963-1.0498,1.1377c-0.45508,0.26855-0.98633,0.40234-1.59277,0.40234h-4.83008V15.32495z"/>
		<path class="st0" d="M139.65918,10.35522h-5.04004l-9.69531,24.5h5.87988l1.74902-4.69043h8.96729l1.74365,4.69043h6.02051
			L139.65918,10.35522z M134.22302,25.6853l2.8418-8.04388l2.78992,8.04388H134.22302z"/>
		<polygon class="st0" points="169.30469,10.35522 148.61914,10.35522 148.61914,15.60522 155.89941,15.60522 155.89941,34.85522 
			161.84961,34.85522 161.84961,15.60522 169.30469,15.60522 		"/>
		<path class="st0" d="M183.375,10.35522h-5.04004l-9.69531,24.5h5.87988l1.74902-4.69043h8.96729l1.74365,4.69043H193
			L183.375,10.35522z M177.93884,25.6853l2.8418-8.04388l2.78992,8.04388H177.93884z"/>
	</g>
</g>
</svg>
