<?xml version="1.0" encoding="utf-8"?>
<!-- Generator: Adobe Illustrator 28.1.0, SVG Export Plug-In . SVG Version: 6.00 Build 0)  -->
<svg version="1.1" id="Ebene_1" xmlns="http://www.w3.org/2000/svg" xmlns:xlink="http://www.w3.org/1999/xlink" x="0px" y="0px"
	 viewBox="0 0 191.02 64.3" style="enable-background:new 0 0 191.02 64.3;" xml:space="preserve">
<style type="text/css">
	.st0{fill:#808080;}
</style>
<g>
	<g>
		<g>
			<g>
				<path class="st0" d="M10.04,19.3h10c7.81,7.81,12.19,12.19,20,20v0h-30c-3.91-3.91-6.09-6.09-10-10v0
					C3.95,25.39,6.14,23.2,10.04,19.3z"/>
			</g>
			<g>
				<path class="st0" d="M30.04,64.3h-10c-7.81-7.81-12.19-12.19-20-20v0h30c3.91,3.91,6.09,6.09,10,10v0
					C36.14,58.2,33.95,60.39,30.04,64.3z"/>
			</g>
		</g>
	</g>
</g>
<g>
	<g>
		<path class="st0" d="M71.73,33.28c-0.76-0.61-1.66-1.12-2.7-1.54c-1.04-0.42-2.2-0.76-3.48-1.01c-0.56-0.09-1.1-0.22-1.61-0.37
			c-0.51-0.15-0.97-0.34-1.37-0.56c-0.4-0.22-0.71-0.47-0.94-0.75c-0.23-0.28-0.35-0.62-0.35-1.02c0-0.44,0.14-0.82,0.42-1.14
			c0.28-0.32,0.67-0.56,1.17-0.74c0.5-0.17,1.1-0.26,1.8-0.26c0.68,0,1.34,0.1,1.98,0.31c0.64,0.21,1.25,0.51,1.82,0.91
			c0.57,0.4,1.1,0.9,1.59,1.51l3.67-3.54c-0.58-0.89-1.29-1.65-2.12-2.27c-0.83-0.63-1.82-1.11-2.98-1.45
			c-1.16-0.34-2.54-0.51-4.15-0.51c-1.21,0-2.38,0.18-3.5,0.54s-2.11,0.88-2.96,1.54c-0.85,0.67-1.53,1.46-2.03,2.38
			c-0.5,0.92-0.75,1.93-0.75,3.03c0,1.03,0.16,1.95,0.49,2.78c0.33,0.83,0.82,1.56,1.49,2.21c0.67,0.64,1.5,1.18,2.5,1.63
			c1,0.44,2.18,0.82,3.54,1.12c0.49,0.09,0.97,0.2,1.44,0.33c0.47,0.13,0.91,0.28,1.33,0.46s0.78,0.37,1.08,0.58
			c0.3,0.21,0.54,0.46,0.72,0.73c0.18,0.28,0.26,0.6,0.26,0.95c0,0.47-0.14,0.86-0.42,1.17c-0.28,0.31-0.68,0.55-1.19,0.72
			c-0.51,0.16-1.08,0.25-1.72,0.25c-1.26,0-2.48-0.27-3.66-0.8c-1.18-0.54-2.35-1.59-3.52-3.15L54,41.4c0.79,1,1.69,1.87,2.69,2.61
			c1,0.73,2.15,1.29,3.45,1.68c1.29,0.38,2.75,0.58,4.36,0.58c1.87,0,3.52-0.31,4.95-0.93c1.44-0.62,2.57-1.52,3.4-2.7
			c0.83-1.18,1.24-2.62,1.24-4.32c0-1.1-0.2-2.06-0.61-2.89C73.07,34.6,72.48,33.89,71.73,33.28z"/>
		<polygon class="st0" points="76.61,26.66 83.89,26.66 83.89,45.91 89.84,45.91 89.84,26.66 97.29,26.66 97.29,21.41 76.61,21.41 
					"/>
		<path class="st0" d="M116.79,36.25c1.26-0.7,2.25-1.66,2.98-2.89c0.72-1.22,1.08-2.61,1.08-4.15c0-1.49-0.36-2.83-1.08-4.01
			c-0.72-1.18-1.72-2.11-2.99-2.78c-1.27-0.68-2.69-1.01-4.25-1.01h-11.03v24.5h5.67V37.3h3.06l4.85,8.61h6.79l-5.49-9.46
			C116.51,36.38,116.65,36.33,116.79,36.25z M107.16,26.38h4.3c0.75,0,1.38,0.13,1.91,0.39c0.52,0.26,0.93,0.62,1.21,1.1
			c0.28,0.48,0.42,1.03,0.42,1.66c0,0.63-0.12,1.19-0.37,1.68c-0.25,0.49-0.59,0.87-1.05,1.14c-0.46,0.27-0.99,0.4-1.59,0.4h-4.83
			V26.38z"/>
		<path class="st0" d="M137.68,21.41h-5.04l-9.7,24.5h5.88l1.75-4.69h8.97l1.74,4.69h6.02L137.68,21.41z M132.25,36.74l2.84-8.04
			l2.79,8.04H132.25z"/>
		<polygon class="st0" points="167.33,21.41 146.64,21.41 146.64,26.66 153.92,26.66 153.92,45.91 159.87,45.91 159.87,26.66 
			167.33,26.66 		"/>
		<path class="st0" d="M181.4,21.41h-5.04l-9.7,24.5h5.88l1.75-4.69h8.97l1.74,4.69h6.02L181.4,21.41z M175.96,36.74l2.84-8.04
			l2.79,8.04H175.96z"/>
	</g>
	<g>
		<g>
			<path class="st0" d="M59.32,62.74c-0.65,0-1.24-0.08-1.78-0.24c-0.54-0.16-1.01-0.4-1.42-0.71c-0.42-0.31-0.79-0.69-1.12-1.12
				l1.41-1.61c0.49,0.68,0.98,1.14,1.46,1.39s1.01,0.37,1.58,0.37c0.31,0,0.59-0.04,0.83-0.13s0.44-0.21,0.58-0.37
				c0.14-0.16,0.21-0.35,0.21-0.57c0-0.16-0.04-0.31-0.11-0.44c-0.07-0.14-0.17-0.26-0.3-0.36c-0.13-0.11-0.29-0.2-0.46-0.29
				c-0.18-0.08-0.38-0.16-0.6-0.22c-0.22-0.07-0.46-0.12-0.72-0.16c-0.56-0.13-1.05-0.29-1.47-0.47c-0.42-0.19-0.77-0.42-1.05-0.69
				c-0.28-0.27-0.49-0.59-0.62-0.94c-0.13-0.35-0.2-0.75-0.2-1.18c0-0.45,0.1-0.87,0.3-1.25s0.48-0.72,0.83-1
				c0.36-0.28,0.77-0.5,1.23-0.65c0.46-0.15,0.96-0.22,1.48-0.22c0.64,0,1.2,0.07,1.68,0.22c0.48,0.15,0.9,0.35,1.25,0.62
				c0.35,0.27,0.65,0.6,0.89,0.99l-1.42,1.38c-0.21-0.28-0.44-0.52-0.68-0.71c-0.25-0.19-0.51-0.33-0.79-0.43
				c-0.29-0.09-0.58-0.14-0.88-0.14c-0.33,0-0.62,0.04-0.86,0.13c-0.24,0.08-0.43,0.21-0.56,0.37c-0.13,0.16-0.2,0.36-0.2,0.58
				c0,0.18,0.04,0.34,0.13,0.48c0.09,0.14,0.22,0.26,0.39,0.37c0.17,0.1,0.38,0.2,0.61,0.28c0.24,0.08,0.5,0.15,0.8,0.21
				c0.55,0.11,1.04,0.25,1.48,0.44c0.44,0.18,0.82,0.4,1.13,0.65c0.31,0.25,0.56,0.55,0.73,0.9c0.17,0.35,0.25,0.73,0.25,1.16
				c0,0.71-0.17,1.31-0.51,1.81c-0.34,0.5-0.81,0.88-1.41,1.15C60.82,62.61,60.12,62.74,59.32,62.74z"/>
			<path class="st0" d="M72.28,62.74c-0.77,0-1.48-0.13-2.13-0.4c-0.65-0.27-1.22-0.65-1.7-1.13c-0.49-0.49-0.86-1.06-1.12-1.72
				c-0.26-0.67-0.39-1.39-0.39-2.17c0-0.79,0.13-1.51,0.39-2.17c0.26-0.66,0.63-1.23,1.12-1.72c0.48-0.49,1.05-0.87,1.7-1.14
				c0.65-0.27,1.36-0.4,2.13-0.4c0.78,0,1.49,0.13,2.14,0.4c0.65,0.27,1.21,0.65,1.7,1.14c0.48,0.49,0.86,1.06,1.12,1.72
				s0.39,1.38,0.39,2.16s-0.13,1.5-0.39,2.16s-0.63,1.24-1.12,1.72c-0.49,0.49-1.05,0.87-1.7,1.14
				C73.77,62.61,73.06,62.74,72.28,62.74z M72.28,60.61c0.44,0,0.85-0.08,1.22-0.24c0.38-0.16,0.7-0.39,0.97-0.69
				c0.27-0.3,0.48-0.65,0.64-1.05c0.15-0.4,0.23-0.84,0.23-1.32c0-0.48-0.08-0.92-0.23-1.32c-0.16-0.4-0.37-0.75-0.64-1.04
				c-0.27-0.29-0.59-0.53-0.97-0.69s-0.78-0.25-1.22-0.25c-0.44,0-0.84,0.08-1.21,0.25s-0.7,0.4-0.97,0.69
				c-0.28,0.29-0.49,0.64-0.64,1.04c-0.15,0.4-0.22,0.84-0.22,1.32c0,0.48,0.07,0.92,0.22,1.32c0.14,0.4,0.36,0.75,0.64,1.05
				c0.28,0.3,0.6,0.53,0.97,0.69C71.43,60.53,71.84,60.61,72.28,60.61z"/>
			<path class="st0" d="M86.23,62.68c-0.85,0-1.61-0.18-2.27-0.53c-0.67-0.36-1.19-0.85-1.57-1.47c-0.38-0.62-0.57-1.33-0.57-2.12
				v-6.48h2.26v6.35c0,0.42,0.09,0.8,0.29,1.13c0.19,0.34,0.45,0.6,0.77,0.8c0.32,0.2,0.69,0.3,1.09,0.3c0.41,0,0.78-0.1,1.12-0.3
				s0.6-0.47,0.79-0.8c0.2-0.33,0.29-0.71,0.29-1.13v-6.35h2.19v6.48c0,0.79-0.19,1.5-0.57,2.12c-0.38,0.62-0.9,1.12-1.57,1.47
				C87.82,62.5,87.07,62.68,86.23,62.68z"/>
			<path class="st0" d="M104.08,62.61l-2.39-4.13c0.08-0.04,0.17-0.05,0.25-0.1c0.53-0.3,0.95-0.71,1.25-1.22
				c0.31-0.52,0.46-1.09,0.46-1.72c0-0.64-0.15-1.21-0.46-1.71c-0.3-0.5-0.72-0.9-1.25-1.19c-0.53-0.29-1.12-0.44-1.77-0.44h-4.65
				v10.5h2.17v-3.77h1.66l2.12,3.77L104.08,62.61z M97.69,54.04h2.08c0.33,0,0.62,0.06,0.87,0.19s0.44,0.3,0.57,0.52
				c0.13,0.22,0.19,0.48,0.19,0.78c0,0.28-0.05,0.53-0.17,0.76c-0.11,0.22-0.27,0.4-0.47,0.52c-0.21,0.13-0.44,0.19-0.71,0.19h-2.37
				V54.04z"/>
			<path class="st0" d="M112.72,62.74c-0.77,0-1.48-0.13-2.12-0.4c-0.65-0.26-1.21-0.64-1.68-1.12c-0.48-0.48-0.84-1.06-1.1-1.72
				c-0.26-0.67-0.39-1.39-0.39-2.18c0-0.77,0.13-1.48,0.41-2.14c0.27-0.65,0.65-1.22,1.14-1.71c0.49-0.48,1.07-0.86,1.73-1.13
				c0.66-0.27,1.38-0.41,2.14-0.41c0.5,0,0.99,0.07,1.48,0.2s0.93,0.33,1.33,0.59s0.75,0.57,1.04,0.93l-1.41,1.56
				c-0.24-0.24-0.49-0.45-0.74-0.62c-0.26-0.17-0.53-0.31-0.81-0.41c-0.29-0.09-0.59-0.14-0.91-0.14c-0.43,0-0.83,0.08-1.21,0.24
				c-0.38,0.16-0.7,0.38-0.98,0.67s-0.5,0.63-0.67,1.04c-0.17,0.4-0.25,0.85-0.25,1.34c0,0.5,0.08,0.95,0.24,1.36
				c0.16,0.41,0.38,0.75,0.67,1.04s0.64,0.51,1.04,0.66c0.4,0.16,0.85,0.23,1.34,0.23c0.32,0,0.63-0.04,0.93-0.13
				s0.58-0.21,0.83-0.38s0.48-0.34,0.68-0.55l1.09,1.75c-0.24,0.27-0.56,0.51-0.97,0.73c-0.41,0.22-0.86,0.39-1.36,0.52
				C113.73,62.68,113.23,62.74,112.72,62.74z"/>
			<polygon class="st0" points="122.89,60.61 122.89,58.2 127.07,58.2 127.07,56.28 122.89,56.28 122.89,54.07 127.79,54.07 
				127.79,52.09 120.7,52.09 120.7,62.59 127.9,62.59 127.9,60.61 			"/>
		</g>
	</g>
	<g>
		<path class="st0" d="M5.45,0.6C5.01,0.34,4.5,0.21,3.93,0.21H0v9.1h2.21V6.27h1.72c0.57,0,1.08-0.13,1.53-0.4
			c0.45-0.27,0.8-0.63,1.07-1.1c0.26-0.46,0.4-0.99,0.4-1.58c0-0.56-0.13-1.07-0.4-1.52C6.26,1.21,5.9,0.86,5.45,0.6z M4.51,3.8
			c-0.1,0.16-0.22,0.29-0.38,0.39C3.98,4.28,3.8,4.33,3.61,4.33H2.17V2.16h1.44c0.19,0,0.36,0.04,0.52,0.13
			C4.29,2.37,4.42,2.5,4.51,2.65C4.61,2.81,4.65,3,4.65,3.22C4.65,3.44,4.61,3.63,4.51,3.8z"/>
		<path class="st0" d="M18.07,1.34c-0.42-0.42-0.92-0.75-1.5-0.99S15.38,0,14.69,0s-1.31,0.12-1.89,0.35
			c-0.57,0.23-1.07,0.56-1.49,0.99c-0.42,0.42-0.75,0.92-0.99,1.5c-0.23,0.57-0.35,1.2-0.35,1.88s0.12,1.31,0.35,1.88
			c0.23,0.57,0.56,1.07,0.99,1.5c0.42,0.42,0.92,0.75,1.49,0.99c0.57,0.23,1.21,0.35,1.9,0.35c0.68,0,1.3-0.12,1.87-0.35
			c0.57-0.23,1.07-0.56,1.5-0.99s0.75-0.92,0.98-1.5c0.23-0.58,0.34-1.2,0.34-1.88c0-0.68-0.12-1.31-0.34-1.88
			C18.82,2.26,18.5,1.76,18.07,1.34z M16.96,5.77c-0.12,0.32-0.29,0.6-0.51,0.84c-0.22,0.24-0.48,0.42-0.78,0.55
			c-0.3,0.13-0.63,0.19-0.98,0.19c-0.36,0-0.68-0.06-0.98-0.19c-0.3-0.13-0.56-0.31-0.79-0.55c-0.23-0.23-0.4-0.51-0.51-0.84
			c-0.12-0.33-0.17-0.68-0.17-1.06c0-0.38,0.06-0.73,0.17-1.05c0.12-0.32,0.29-0.6,0.51-0.84s0.49-0.42,0.79-0.55
			c0.3-0.13,0.63-0.19,0.98-0.19c0.35,0,0.68,0.06,0.98,0.19s0.56,0.31,0.78,0.55c0.22,0.24,0.39,0.52,0.51,0.84
			c0.12,0.32,0.18,0.67,0.18,1.05C17.15,5.1,17.09,5.45,16.96,5.77z"/>
		<path class="st0" d="M31.15,4.98c-0.06,0.22-0.11,0.41-0.14,0.58c-0.04,0.17-0.06,0.32-0.08,0.46c-0.01,0.07-0.02,0.13-0.02,0.2
			c-0.03-0.14-0.05-0.27-0.09-0.42c-0.07-0.25-0.16-0.52-0.26-0.81l-1.33-3.6h-1.77l-1.35,3.6c-0.08,0.24-0.14,0.47-0.2,0.7
			c-0.04,0.18-0.08,0.38-0.11,0.58c-0.03-0.2-0.07-0.4-0.12-0.62c-0.05-0.22-0.1-0.44-0.16-0.66l-1.37-4.78h-2.25l2.73,9.1h1.74
			l1.87-4.92l2.02,4.92h1.69l2.73-9.1h-2.2L31.15,4.98z"/>
		<polygon class="st0" points="40,5.58 43.62,5.58 43.62,3.78 40,3.78 40,2.09 44.2,2.09 44.2,0.21 37.86,0.21 37.86,9.31 
			44.33,9.31 44.33,7.42 40,7.42 		"/>
		<path class="st0" d="M53.87,5.72c0.47-0.26,0.84-0.62,1.1-1.07s0.4-0.97,0.4-1.54c0-0.55-0.13-1.05-0.4-1.49s-0.64-0.78-1.11-1.03
			c-0.47-0.25-1-0.38-1.58-0.38h-4.1v9.1h2.11v-3.2h1.14l1.8,3.2h2.52l-2.05-3.52C53.76,5.76,53.82,5.75,53.87,5.72z M50.3,2.05h1.6
			c0.28,0,0.51,0.05,0.71,0.14c0.2,0.1,0.34,0.23,0.45,0.41c0.1,0.18,0.16,0.38,0.16,0.62s-0.05,0.44-0.14,0.62
			s-0.22,0.32-0.39,0.42s-0.37,0.15-0.59,0.15H50.3V2.05z"/>
		<polygon class="st0" points="61.41,5.58 65.03,5.58 65.03,3.78 61.41,3.78 61.41,2.09 65.61,2.09 65.61,0.21 59.27,0.21 
			59.27,9.31 65.74,9.31 65.74,7.42 61.41,7.42 		"/>
		<path class="st0" d="M76.68,1.48c-0.4-0.41-0.88-0.72-1.44-0.94s-1.17-0.33-1.83-0.33H69.6v9.1h3.81c0.67,0,1.28-0.11,1.83-0.33
			c0.55-0.22,1.03-0.53,1.44-0.94s0.71-0.88,0.93-1.44c0.22-0.56,0.32-1.17,0.32-1.84s-0.11-1.28-0.32-1.83
			C77.39,2.37,77.08,1.89,76.68,1.48z M75.53,5.82c-0.11,0.32-0.27,0.59-0.47,0.82c-0.2,0.23-0.45,0.4-0.73,0.53
			c-0.29,0.13-0.61,0.19-0.98,0.19h-1.53v-5.2h1.53c0.36,0,0.69,0.06,0.98,0.19c0.29,0.13,0.53,0.3,0.73,0.53
			c0.2,0.22,0.36,0.5,0.47,0.82c0.11,0.32,0.17,0.68,0.17,1.07C75.7,5.15,75.64,5.5,75.53,5.82z"/>
		<path class="st0" d="M94.15,4.68c-0.21-0.15-0.45-0.26-0.71-0.34c0.32-0.13,0.59-0.31,0.79-0.58c0.25-0.36,0.38-0.79,0.38-1.31
			c0-0.47-0.11-0.87-0.33-1.2s-0.55-0.59-0.98-0.77c-0.43-0.18-0.96-0.27-1.59-0.27H87.7v9.1h4.15c0.48,0,0.91-0.06,1.31-0.17
			s0.74-0.29,1.03-0.52c0.29-0.23,0.52-0.52,0.68-0.86c0.16-0.34,0.23-0.74,0.23-1.2c0-0.4-0.08-0.76-0.25-1.07
			S94.45,4.9,94.15,4.68z M89.78,2.05h1.55c0.38,0,0.67,0.08,0.86,0.24s0.29,0.38,0.29,0.66c0,0.19-0.04,0.35-0.12,0.49
			c-0.08,0.13-0.2,0.24-0.36,0.31c-0.16,0.07-0.35,0.11-0.58,0.11h-1.62V2.05z M92.78,7c-0.09,0.15-0.23,0.27-0.4,0.34
			s-0.38,0.12-0.62,0.12h-1.99V5.51h1.92c0.25,0,0.47,0.04,0.65,0.11c0.18,0.07,0.32,0.18,0.42,0.32s0.15,0.31,0.15,0.51
			C92.92,6.66,92.88,6.85,92.78,7z"/>
		<polygon class="st0" points="106.36,0.21 103.93,0.21 101.93,3.36 99.73,0.21 97.23,0.21 100.81,5.28 100.81,9.31 103.04,9.31 
			103.04,5.26 		"/>
	</g>
</g>
</svg>
