<?xml version="1.0" encoding="utf-8"?>
<!-- Generator: Adobe Illustrator 27.3.1, SVG Export Plug-In . SVG Version: 6.00 Build 0)  -->
<svg version="1.1" id="Ebene_1" xmlns="http://www.w3.org/2000/svg" xmlns:xlink="http://www.w3.org/1999/xlink" x="0px" y="0px"
	 viewBox="0 0 193 45" style="enable-background:new 0 0 193 45;" xml:space="preserve">
<style type="text/css">
	.st0{fill:#F0413C;}
</style>
<g>
	<g>
		<g>
			<g>
				<path class="st0" d="M10,0l10,0c7.8,7.8,12.2,12.2,20,20v0H10c-3.9-3.9-6.1-6.1-10-10v0C3.9,6.1,6.1,3.9,10,0z"/>
			</g>
			<g>
				<path d="M30,45H20C12.2,37.2,7.8,32.8,0,25v0h30c3.9,3.9,6.1,6.1,10,10v0C36.1,38.9,33.9,41.1,30,45z"/>
			</g>
		</g>
	</g>
	<g>
		<path d="M66.5,35.2c-1.6,0-3.1-0.2-4.4-0.6c-1.3-0.4-2.4-0.9-3.4-1.7c-1-0.7-1.9-1.6-2.7-2.6l3.6-4.1c1.2,1.6,2.3,2.6,3.5,3.1
			c1.2,0.5,2.4,0.8,3.7,0.8c0.6,0,1.2-0.1,1.7-0.2c0.5-0.2,0.9-0.4,1.2-0.7c0.3-0.3,0.4-0.7,0.4-1.2c0-0.4-0.1-0.7-0.3-0.9
			c-0.2-0.3-0.4-0.5-0.7-0.7c-0.3-0.2-0.7-0.4-1.1-0.6c-0.4-0.2-0.9-0.3-1.3-0.5c-0.5-0.1-0.9-0.2-1.4-0.3c-1.4-0.3-2.5-0.7-3.5-1.1
			c-1-0.4-1.8-1-2.5-1.6c-0.7-0.6-1.2-1.4-1.5-2.2c-0.3-0.8-0.5-1.8-0.5-2.8c0-1.1,0.3-2.1,0.8-3c0.5-0.9,1.2-1.7,2-2.4
			s1.8-1.2,3-1.5c1.1-0.4,2.3-0.5,3.5-0.5c1.6,0,3,0.2,4.1,0.5c1.2,0.3,2.1,0.8,3,1.5s1.5,1.4,2.1,2.3L72,17.6
			c-0.5-0.6-1-1.1-1.6-1.5c-0.6-0.4-1.2-0.7-1.8-0.9s-1.3-0.3-2-0.3c-0.7,0-1.3,0.1-1.8,0.3c-0.5,0.2-0.9,0.4-1.2,0.7
			c-0.3,0.3-0.4,0.7-0.4,1.1c0,0.4,0.1,0.7,0.3,1c0.2,0.3,0.5,0.5,0.9,0.8c0.4,0.2,0.9,0.4,1.4,0.6c0.5,0.2,1.1,0.3,1.6,0.4
			c1.3,0.3,2.4,0.6,3.5,1c1,0.4,1.9,0.9,2.7,1.5c0.8,0.6,1.3,1.3,1.8,2.2c0.4,0.8,0.6,1.8,0.6,2.9c0,1.7-0.4,3.1-1.2,4.3
			c-0.8,1.2-2,2.1-3.4,2.7C70,34.9,68.3,35.2,66.5,35.2z"/>
		<path d="M85.8,34.9V15.6h-7.3v-5.2h20.7v5.2h-7.5v19.2H85.8z"/>
		<path d="M103.5,34.9V10.4h11c1.6,0,3,0.3,4.3,1s2.3,1.6,3,2.8c0.7,1.2,1.1,2.5,1.1,4c0,1.5-0.4,2.9-1.1,4.1
			c-0.7,1.2-1.7,2.2-3,2.9c-1.3,0.7-2.7,1.1-4.3,1.1h-5.4v8.6H103.5z M109.1,21.7h4.8c0.6,0,1.1-0.1,1.6-0.4c0.5-0.3,0.8-0.6,1-1.1
			c0.2-0.5,0.4-1,0.4-1.7s-0.1-1.2-0.4-1.7c-0.3-0.5-0.7-0.8-1.2-1.1c-0.5-0.3-1.2-0.4-1.9-0.4h-4.3V21.7z M117,34.9l-6.2-11.1
			l6.1-0.9l6.9,11.9H117z"/>
		<path d="M124.9,34.9l9.7-24.5h5l9.6,24.5h-6l-4.6-12.4c-0.2-0.5-0.4-1-0.6-1.6c-0.2-0.6-0.4-1.1-0.6-1.7c-0.2-0.6-0.4-1.2-0.5-1.8
			s-0.3-1.1-0.4-1.6l1,0c-0.1,0.6-0.3,1.2-0.5,1.7c-0.2,0.6-0.3,1.1-0.5,1.7c-0.2,0.5-0.4,1.1-0.6,1.6c-0.2,0.5-0.4,1.1-0.6,1.7
			l-4.6,12.4H124.9z M129.5,30.2l1.9-4.5h11.3l1.8,4.5H129.5z"/>
		<path d="M155.9,34.9V15.6h-7.3v-5.2h20.7v5.2h-7.5v19.2H155.9z"/>
		<path d="M168.6,34.9l9.7-24.5h5l9.6,24.5h-6l-4.6-12.4c-0.2-0.5-0.4-1-0.6-1.6c-0.2-0.6-0.4-1.1-0.6-1.7c-0.2-0.6-0.4-1.2-0.5-1.8
			s-0.3-1.1-0.4-1.6l1,0c-0.1,0.6-0.3,1.2-0.5,1.7c-0.2,0.6-0.3,1.1-0.5,1.7c-0.2,0.5-0.4,1.1-0.6,1.6c-0.2,0.5-0.4,1.1-0.6,1.7
			l-4.6,12.4H168.6z M173.2,30.2l1.9-4.5h11.3l1.8,4.5H173.2z"/>
	</g>
</g>
</svg>
